<svg width="21" height="19" viewBox="0 0 21 19" fill="none" xmlns="http://www.w3.org/2000/svg">
<path d="M8.70089 16.3676L8.88467 16.6647L8.70089 16.3676C8.68239 16.3791 8.66683 16.3884 8.64862 16.3989L8.82204 16.7021L8.64862 16.3989C8.4709 16.5011 7.5657 17.0224 6.69313 17.5442C6.30188 17.7782 5.91492 18.0136 5.60232 18.2119C5.60527 18.1971 5.60824 18.1821 5.61123 18.1671C5.71634 17.6394 5.84297 17.0353 5.88649 16.8286C5.89373 16.7942 5.90178 16.7616 5.91162 16.7218C5.91391 16.7126 5.91631 16.7029 5.91881 16.6927C5.94894 16.5701 6.00912 16.294 5.99876 16.0353C5.99371 15.9091 5.97081 15.7425 5.88211 15.5975C5.778 15.4273 5.60008 15.3164 5.37307 15.3164H2.01589C1.10472 15.3164 0.369594 14.5778 0.373628 13.6664L0.411338 5.14647C0.415372 4.23521 1.15737 3.49648 2.06864 3.49648H16.3885C17.2997 3.49648 18.0352 4.2352 18.0312 5.14646L17.9934 13.6664C17.9894 14.5779 17.2482 15.3164 16.3371 15.3164H10.6987C10.6344 15.3164 10.578 15.3318 10.5477 15.3408C10.5111 15.3518 10.4741 15.3658 10.4393 15.3802C10.3694 15.4091 10.2885 15.448 10.2042 15.4911C10.0345 15.5778 9.82918 15.693 9.62737 15.81C9.22263 16.0447 8.81533 16.2965 8.70089 16.3676Z" fill="#373737" stroke="white" stroke-width="0.7"/>
<path d="M10.7009 13.2211L10.8847 13.5182L10.7009 13.2211C10.6824 13.2326 10.6668 13.2419 10.6486 13.2524L10.822 13.5557L10.6486 13.2524C10.4709 13.3546 9.5657 13.8759 8.69313 14.3977C8.30188 14.6317 7.91492 14.8671 7.60232 15.0654C7.60527 15.0506 7.60824 15.0356 7.61123 15.0206C7.71634 14.4929 7.84297 13.8888 7.88649 13.6821C7.89373 13.6477 7.90178 13.6152 7.91162 13.5754C7.91391 13.5661 7.91631 13.5564 7.91881 13.5462C7.94894 13.4236 8.00912 13.1475 7.99876 12.8888C7.99371 12.7626 7.97081 12.596 7.88211 12.451C7.778 12.2808 7.60008 12.1699 7.37307 12.1699H4.01589C3.10472 12.1699 2.36959 11.4313 2.37363 10.52L2.41134 1.99998C2.41537 1.08872 3.15737 0.349997 4.06864 0.349997L18.3885 0.349997C19.2997 0.349997 20.0352 1.08872 20.0312 1.99998L19.9934 10.52C19.9894 11.4314 19.2482 12.1699 18.3371 12.1699H12.6987C12.6344 12.1699 12.578 12.1853 12.5477 12.1943C12.5111 12.2053 12.4741 12.2193 12.4393 12.2337C12.3694 12.2626 12.2885 12.3015 12.2042 12.3446C12.0345 12.4314 11.8292 12.5465 11.6274 12.6635C11.2226 12.8982 10.8153 13.15 10.7009 13.2211Z" fill="#373737" stroke="white" stroke-width="0.7"/>
</svg>
